<?xml version="1.0" encoding="utf-8"?>
<!-- Generator: Adobe Illustrator 22.1.0, SVG Export Plug-In . SVG Version: 6.00 Build 0)  -->
<svg xmlns:xlink="http://www.w3.org/1999/xlink" version="1.1" id="Ebene_1" xmlns="http://www.w3.org/2000/svg" x="0px" y="0px"
     viewBox="0 0 141.7 141.7" style="enable-background:new 0 0 141.7 141.7;" xml:space="preserve">
<style type="text/css">
	.st0{fill:#f47216;}
</style>
    <path class="st0" d="M84.2,24.6c-2.4,0-5.1,0.4-8.1,1.1c-6.7,1.6-13.5,5.8-18.4,11.2c-5.3,5.9-7.5,12.5-6.2,18.1
	c0.1,0.4,0.2,0.7,0.3,1.1c-5.1-0.1-8.7-1.8-9.3-4.3c-0.3-1.2-0.1-2.2,0.7-3.1c0.7-0.8,1.7-1.5,2.9-1.7l1.8-0.4l-0.4-1.8
	c-1-4.1-3.5-4.9-5.4-4.9c-0.6,0-1.2,0.1-1.9,0.2c-0.9,0.2-3.1,1.2-4.8,3.2c-1.5,1.7-3,4.7-1.9,9.1c1.5,6.2,8.4,9.9,18.4,9.9
	c1,0,2,0,3-0.1c2.9,3.7,7.3,5.6,14.5,8.6l0.9,0.3c6.5,2.6,12,4.8,13.7,11.6c3.4,13.9-9.9,22.5-19.6,24.8c-2.4,0.6-4.7,0.9-6.8,0.9
	c-3.6,0-13.2-1.8-15.2-10c-1-4,0.7-7.1,2.3-9c2.3-2.7,5.8-4.7,10-5.7l1.8-0.4l-0.4-1.8c-1-4.2-4.5-6.3-8.9-5.3
	c-9.6,2.3-18.3,11.4-15.7,22.1c1.1,4.5,3.7,8.7,7.5,11.7c4.5,3.7,10.5,5.6,17.4,5.6c0,0,0,0,0,0c3.5,0,7.2-0.5,11.1-1.4
	c5.8-1.4,15.2-5.2,22.4-11.2c9.2-7.6,12.7-16.9,10.4-26.8c-1.9-7.7-8.5-13.6-19.7-17.6c-1.5-0.5-3-1-4.4-1.4c-0.1,0-0.1,0-0.2-0.1
	c16.2-6.1,24.2-14.5,22-23.5C97.2,30.9,94.6,24.6,84.2,24.6z M67.5,53.4c-0.7-0.7-1.1-1.3-1.3-2.1c-0.8-3.2,0.1-6.5,2.5-9.5
	c2.5-3.1,6.4-5.4,10.9-6.5c1.9-0.5,3.6-0.7,5-0.7c3.7,0,4.5,1.6,4.8,2.9C90.6,42.5,81.6,49,67.5,53.4z M137.3,35.1
	c-0.4,0.8-1.4,1.8-3.6,1.8c0,0,0,0,0,0l-0.4,0c-1.8,0-6,0.7-9.7,1.4c-0.5,1.2-1,2.2-1.5,3.3l-0.3,0.7c-3.4,7.8-7.2,16.6-6.2,24.5
	c0.1,0.5,0.2,1,0.4,1.5c0.1,0.4,0.3,0.9,0.4,1.5l0.5,2.2l-2.1,0.8c-0.8,0.3-1.6,0.6-2.4,0.8c-0.8,0.2-1.6,0.3-2.4,0.3
	c-2,0-3.8-0.7-5.1-2.1c-2-2.1-2.8-5.6-2.4-10.3c0.3-3.4,1.1-6.2,1.2-6.5c1.4-5.1,3.8-9.8,6.2-13.9c-2.5,0.5-5,0.9-7.3,1.4l-0.4,0.1
	l-0.4-0.1c-0.7-0.2-1.7-0.9-1.8-2c-0.1-1.1,0.5-2.1,1.9-2.8l0.2-0.1c0.2-0.1,5.9-2.6,13.1-4.8l0.4-0.6c2.2-3.4,4.3-6.6,6.1-9.8
	c-1.5-0.4-3.1-0.7-5-0.7c-2.2,0-4.8,0.3-7.6,1c-1.4,0.3-3,0.8-4.6,1.3l-2.2,0.7l-0.9-2.1c-1.8-4-0.5-8.1,3.1-10.3
	c1.9-1.1,4.2-2,6.8-2.6c2.4-0.6,5-0.8,7.4-0.8c6.9,0,11.7,2.2,13.1,6.1c1.3,3.6-1.1,8.7-3.6,13.6c-0.3,0.5-0.5,1-0.7,1.3
	c0,0.1-0.1,0.2-0.1,0.2c2.8-0.4,5.2-0.5,7.4-0.4l0.9,0.1l0.5,0.8C136.9,30.7,138.4,33.1,137.3,35.1z M130.5,45.4
	c3.3,7.8,5.1,16.4,5.1,25.3c0,36.1-29.4,65.5-65.5,65.5c-36.1,0-65.5-29.4-65.5-65.5S34.1,5.3,70.2,5.3c9.9,0,19.3,2.2,27.7,6.2
	c-1.4,1.7-3.5,5.3-2.6,10.9c-7.5-3.9-16-6.1-25.1-6.1c-30.1,0-54.5,24.5-54.5,54.5s24.5,54.5,54.5,54.5c30.1,0,54.5-24.5,54.5-54.5
	c0-4.4-0.5-8.7-1.5-12.8C125.4,51.5,128.7,47.4,130.5,45.4z"/>
</svg>
